<?xml version="1.0" encoding="UTF-8"?>
<!DOCTYPE svg PUBLIC "-//W3C//DTD SVG 1.1//EN" "http://www.w3.org/Graphics/SVG/1.1/DTD/svg11.dtd">
<svg version="1.1" xmlns="http://www.w3.org/2000/svg" xmlns:xlink="http://www.w3.org/1999/xlink" x="0" y="0" width="72" height="38.25" viewBox="0, 0, 160, 85">
  <g id="Layer_1">
    <g>
      <path d="M-10,0 L-9,0 L-9,1 L-10,1 z" fill="#000000"/>
      <g id="all-logo">
        <path d="M30.976,0 L58.78,48.78 L79.463,10.488 L100.146,48.78 L127.951,0" fill="#000000" id="window"/>
        <path d="M10,57.771 L12.054,57.771 L17.358,76.274 L22.368,59.54 L24.905,59.54 L29.832,76.274 L35.126,57.771 L37.18,57.771 L31.053,78.663 L28.606,78.663 L23.638,61.842 L18.574,78.663 L16.127,78.663 L10,57.771 L12.054,57.771 M40.279,71.346 L45.262,59.895 L50.245,71.346 L40.279,71.346 z M46.199,57.771 L44.325,57.771 L34.994,78.663 L37.079,78.663 L39.494,73.116 L51.031,73.116 L53.446,78.663 L55.531,78.663 L46.199,57.771 M65.987,68.936 C68.312,68.541 71.235,67.305 71.235,63.447 C71.235,57.957 65.686,57.771 63.995,57.771 L58.009,57.771 L58.009,78.663 L59.99,78.663 L59.99,59.54 L64.264,59.54 C68.462,59.54 69.243,62 69.243,63.447 C69.243,64.888 68.431,67.338 64.264,67.351 L61.984,67.351 L61.984,69.122 L63.995,69.122 L69.725,78.663 L71.991,78.663 L65.987,68.936 M94.319,78.659 L100.447,57.766 L98.393,57.766 L93.099,76.269 L88.264,59.535 L85.542,59.535 L80.624,76.269 L75.32,57.766 L73.266,57.766 L79.395,78.659 L81.84,78.659 L86.904,61.838 L91.874,78.659 L94.319,78.659 M103.798,78.659 L105.791,78.659 L105.791,57.766 L103.798,57.766 L103.798,78.659 z M120.359,77.42 C114.772,77.42 111.299,73.406 111.299,68.212 L111.3,68.212 C111.3,63.017 114.772,58.958 120.359,58.958 C122.504,58.958 125.161,59.961 126.67,62.204 L128.301,60.994 C126.278,58.278 123.499,57.186 120.359,57.186 C113.835,57.186 109.306,61.837 109.306,68.212 C109.306,74.587 113.835,79.191 120.359,79.191 C123.499,79.191 126.278,78.099 128.301,75.383 L126.67,74.173 C125.161,76.415 122.504,77.42 120.359,77.42 M131.156,78.659 L133.149,78.659 L133.149,57.766 L131.156,57.766 L131.156,78.659 z M145.406,78.659 L148.275,78.659 L137.236,68.213 L147.671,57.766 L144.924,57.766 L134.247,68.213 L145.406,78.659 z" fill="#000000" id="logotype"/>
      </g>
    </g>
  </g>
</svg>
