<?xml version="1.0" encoding="UTF-8"?>
<!DOCTYPE svg PUBLIC "-//W3C//DTD SVG 1.1//EN" "http://www.w3.org/Graphics/SVG/1.1/DTD/svg11.dtd">
<svg version="1.1" xmlns="http://www.w3.org/2000/svg" xmlns:xlink="http://www.w3.org/1999/xlink" x="0" y="0" width="1140" height="286" viewBox="0, 0, 1140, 286">
  <g id="Layer_1">
    <path d="M615.644,143.5 L713.271,143.5" fill-opacity="0" stroke="#30B5FF" stroke-width="3"/>
    <path d="M711.903,47.408 L711.903,146.6" fill-opacity="0" stroke="#30B5FF" stroke-width="3"/>
    <path d="M807.205,48.741 L904.832,48.741" fill-opacity="0" stroke="#30B5FF" stroke-width="3"/>
    <path d="M711.369,143.792 L808.996,143.792" fill-opacity="0" stroke="#30B5FF" stroke-width="3"/>
    <path d="M807.205,143.792 L807.205,238.048" fill-opacity="0" stroke="#30B5FF" stroke-width="3"/>
    <path d="M997.007,239.156 L1094.633,239.156" fill-opacity="0" stroke="#30B5FF" stroke-width="3"/>
    <path d="M1094.633,48.339 L1094.633,143.792" fill-opacity="0" stroke="#30B5FF" stroke-width="3"/>
    <path d="M903.183,143.792 L903.183,146.6" fill-opacity="0" stroke="#30B5FF" stroke-width="3"/>
    <path d="M998.908,48.339 L998.908,146.6" fill-opacity="0" stroke="#30B5FF" stroke-width="3"/>
    <path d="M908.306,48.741 L1002.13,48.741" fill-opacity="0" stroke="#30B5FF" stroke-width="3"/>
    <path d="M997.007,143.792 L997.007,146.6" fill-opacity="0" stroke="#30B5FF" stroke-width="3"/>
    <path d="M983.745,48.741 L1081.372,48.741" fill-opacity="0" stroke="#30B5FF" stroke-width="3"/>
    <g>
      <path d="M1092.229,76.769 C1076.474,76.769 1063.702,63.997 1063.702,48.241 C1063.702,32.486 1076.474,19.714 1092.229,19.714 C1107.984,19.714 1120.756,32.486 1120.756,48.241 C1120.756,63.997 1107.984,76.769 1092.229,76.769 z" fill="#5732F2"/>
      <path d="M1092.223,27.073 C1100.055,27.073 1106.404,34.358 1106.404,43.345 C1106.272,48.082 1104.659,53.255 1100.709,56.315 C1106.218,57.872 1111.228,60.7 1115.263,64.673 C1110.048,72.652 1101.654,76.304 1092.223,76.769 C1082.857,76.66 1074.421,72.252 1069.194,64.691 C1073.151,60.616 1078.425,58.212 1083.737,56.315 C1079.752,53.196 1078.252,48.124 1078.042,43.345 C1078.042,34.358 1084.391,27.073 1092.223,27.073 z" fill="#01CB83"/>
    </g>
    <g>
      <path d="M1092.229,267.183 C1076.474,267.183 1063.702,254.411 1063.702,238.656 C1063.702,222.9 1076.474,210.128 1092.229,210.128 C1107.984,210.128 1120.756,222.9 1120.756,238.656 C1120.756,254.411 1107.984,267.183 1092.229,267.183 z" fill="#5732F2"/>
      <path d="M1092.223,217.487 C1100.055,217.487 1106.404,224.772 1106.404,233.759 C1106.272,238.497 1104.659,243.669 1100.709,246.729 C1106.218,248.286 1111.228,251.114 1115.263,255.087 C1110.048,263.066 1101.654,266.718 1092.223,267.183 C1082.857,267.074 1074.421,262.666 1069.194,255.105 C1073.151,251.03 1078.425,248.626 1083.737,246.729 C1079.752,243.61 1078.252,238.539 1078.042,233.759 C1078.042,224.772 1084.391,217.487 1092.223,217.487 z" fill="#01CB83"/>
    </g>
    <path d="M835.619,239.156 L903.183,239.156" fill-opacity="0" stroke="#30B5FF" stroke-width="3"/>
    <path d="M617.546,146.6 L617.546,238.048" fill-opacity="0" stroke="#30B5FF" stroke-width="3"/>
    <path d="M617.546,47.232 L711.369,47.232" fill-opacity="0" stroke="#30B5FF" stroke-width="3"/>
    <g>
      <path d="M615.865,170.59 C600.113,170.289 587.586,157.276 587.887,141.523 C588.188,125.771 601.201,113.245 616.954,113.545 C632.706,113.846 645.232,126.86 644.931,142.612 C644.631,158.364 631.617,170.89 615.865,170.59 z" fill="#5732F2"/>
      <path d="M616.807,120.902 C624.638,121.052 630.847,128.457 630.676,137.442 C630.453,142.177 628.741,147.317 624.734,150.302 C630.212,151.963 635.167,154.886 639.126,158.936 C633.76,166.813 625.297,170.305 615.859,170.59 C606.496,170.303 598.147,165.734 593.065,158.074 C597.098,154.076 602.418,151.773 607.764,149.978 C603.84,146.783 602.437,141.684 602.318,136.901 C602.49,127.916 608.977,120.753 616.807,120.902 z" fill="#01CB83"/>
    </g>
    <path d="M1002.13,145.196 L1094.633,145.196" fill-opacity="0" stroke="#30B5FF" stroke-width="3"/>
    <g>
      <path d="M902.047,75.259 C886.292,75.259 873.519,62.487 873.519,46.732 C873.519,30.977 886.292,18.205 902.047,18.205 C917.802,18.205 930.574,30.977 930.574,46.732 C930.574,62.487 917.802,75.259 902.047,75.259 z" fill="#5732F2"/>
      <path d="M902.041,25.563 C909.873,25.563 916.222,32.848 916.222,41.835 C916.09,46.573 914.477,51.745 910.527,54.806 C916.036,56.362 921.046,59.19 925.081,63.164 C919.866,71.142 911.472,74.794 902.041,75.259 C892.674,75.151 884.239,70.743 879.012,63.181 C882.969,59.106 888.243,56.702 893.554,54.806 C889.57,51.687 888.07,46.615 887.859,41.835 C887.859,32.848 894.209,25.563 902.041,25.563 z" fill="#01CB83"/>
    </g>
    <path d="M808.996,44.6 L808.996,143.792" fill-opacity="0" stroke="#30B5FF" stroke-width="3"/>
    <g>
      <path d="M806.592,170.595 C790.836,170.595 778.064,157.823 778.064,142.068 C778.064,126.312 790.836,113.54 806.592,113.54 C822.347,113.54 835.119,126.312 835.119,142.068 C835.119,157.823 822.347,170.595 806.592,170.595 z" fill="#5732F2"/>
      <path d="M806.586,120.899 C814.418,120.899 820.767,128.184 820.767,137.171 C820.634,141.909 819.021,147.081 815.072,150.141 C820.581,151.698 825.591,154.526 829.626,158.499 C824.411,166.478 816.016,170.13 806.586,170.595 C797.219,170.487 788.784,166.078 783.557,158.517 C787.513,154.442 792.788,152.038 798.099,150.141 C794.114,147.022 792.615,141.951 792.404,137.171 C792.404,128.184 798.753,120.899 806.586,120.899 z" fill="#01CB83"/>
    </g>
    <path d="M613.742,238.048 L711.369,238.048" fill-opacity="0" stroke="#30B5FF" stroke-width="3"/>
    <g>
      <path d="M711.403,266.076 C695.648,266.076 682.876,253.303 682.876,237.548 C682.876,221.793 695.648,209.021 711.403,209.021 C727.158,209.021 739.93,221.793 739.93,237.548 C739.93,253.303 727.158,266.076 711.403,266.076 z" fill="#5732F2"/>
      <path d="M711.397,216.379 C719.229,216.379 725.578,223.665 725.578,232.652 C725.446,237.389 723.833,242.562 719.884,245.622 C725.392,247.179 730.402,250.006 734.438,253.98 C729.222,261.958 720.828,265.611 711.397,266.076 C702.031,265.967 693.595,261.559 688.369,253.998 C692.325,249.923 697.599,247.519 702.911,245.622 C698.926,242.503 697.426,237.431 697.216,232.652 C697.216,223.665 703.565,216.379 711.397,216.379 z" fill="#01CB83"/>
    </g>
    <path d="M903.183,143.792 L903.183,242.053" fill-opacity="0" stroke="#30B5FF" stroke-width="3"/>
    <g>
      <path d="M902.047,267.183 C886.292,267.183 873.519,254.411 873.519,238.656 C873.519,222.9 886.292,210.128 902.047,210.128 C917.802,210.128 930.574,222.9 930.574,238.656 C930.574,254.411 917.802,267.183 902.047,267.183 z" fill="#5732F2"/>
      <path d="M902.041,217.487 C909.873,217.487 916.222,224.772 916.222,233.759 C916.09,238.497 914.477,243.669 910.527,246.729 C916.036,248.286 921.046,251.114 925.081,255.087 C919.866,263.066 911.472,266.718 902.041,267.183 C892.674,267.074 884.239,262.666 879.012,255.105 C882.969,251.03 888.243,248.626 893.554,246.729 C889.57,243.61 888.07,238.539 887.859,233.759 C887.859,224.772 894.209,217.487 902.041,217.487 z" fill="#01CB83"/>
    </g>
    <path d="M1000.81,143.194 L1000.81,241.455" fill-opacity="0" stroke="#30B5FF" stroke-width="3"/>
    <g>
      <path d="M997.04,171.458 C981.285,171.458 968.513,158.686 968.513,142.93 C968.513,127.175 981.285,114.403 997.04,114.403 C1012.796,114.403 1025.568,127.175 1025.568,142.93 C1025.568,158.686 1012.796,171.458 997.04,171.458 z" fill="#5732F2"/>
      <path d="M997.035,121.762 C1004.867,121.762 1011.216,129.047 1011.216,138.034 C1011.083,142.772 1009.47,147.944 1005.521,151.004 C1011.03,152.561 1016.04,155.389 1020.075,159.362 C1014.86,167.341 1006.465,170.993 997.034,171.458 C987.668,171.349 979.233,166.941 974.006,159.38 C977.962,155.305 983.237,152.901 988.548,151.004 C984.563,147.885 983.064,142.814 982.853,138.034 C982.853,129.047 989.202,121.762 997.035,121.762 z" fill="#01CB83"/>
    </g>
    <g>
      <path d="M711.403,75.661 C695.648,75.661 682.876,62.889 682.876,47.134 C682.876,31.379 695.648,18.607 711.403,18.607 C727.158,18.607 739.93,31.379 739.93,47.134 C739.93,62.889 727.158,75.661 711.403,75.661 z" fill="#5732F2"/>
      <path d="M711.397,25.965 C719.229,25.965 725.578,33.251 725.578,42.237 C725.446,46.975 723.833,52.148 719.884,55.208 C725.392,56.764 730.402,59.592 734.438,63.566 C729.222,71.544 720.828,75.196 711.397,75.661 C702.031,75.553 693.595,71.145 688.369,63.583 C692.325,59.509 697.599,57.104 702.911,55.208 C698.926,52.089 697.426,47.017 697.216,42.237 C697.216,33.251 703.565,25.965 711.397,25.965 z" fill="#01CB83"/>
    </g>
    <g>
      <path d="M616.409,76.769 C600.654,76.769 587.882,63.997 587.882,48.241 C587.882,32.486 600.654,19.714 616.409,19.714 C632.164,19.714 644.937,32.486 644.937,48.241 C644.937,63.997 632.164,76.769 616.409,76.769 z" fill="#30B5FF"/>
      <g>
        <path d="M606.306,28.12 C615.572,19.585 624.378,29.524 624.378,29.524 C624.378,29.524 632.451,37.317 632.451,37.317 C631.727,42.467 636.776,41.854 636.776,41.854 C636.776,41.854 641.276,46.386 641.276,46.386 C634.075,53.849 632.93,54.584 632.93,54.584 C632.93,54.584 628.471,50.182 628.471,50.182 C628.895,44.825 623.836,45.872 623.836,45.872 C622.495,43.926 620.673,45.771 620.673,45.771 C620.673,45.771 616.189,41.343 616.189,41.343 C618.083,39.17 618.516,36.31 618.516,36.31 C609.795,26.455 606.213,28.206 606.306,28.12 z" fill-opacity="0" stroke="#000000" stroke-width="2" stroke-linecap="round" stroke-linejoin="round"/>
        <path d="M598.862,21.214" fill-opacity="0" stroke="#000000" stroke-width="2"/>
        <path d="M596.542,61.368 L616.252,41.405 L620.737,45.833 L601.027,65.796 L596.542,61.368 z" fill-opacity="0" stroke="#000000" stroke-width="2" stroke-linecap="square" stroke-linejoin="round"/>
      </g>
    </g>
    <g>
      <path d="M806.592,75.661 C790.836,75.661 778.064,62.889 778.064,47.134 C778.064,31.379 790.836,18.607 806.592,18.607 C822.347,18.607 835.119,31.379 835.119,47.134 C835.119,62.889 822.347,75.661 806.592,75.661 z" fill="#30B5FF"/>
      <g>
        <path d="M796.488,27.013 C805.754,18.478 814.56,28.416 814.56,28.416 C814.56,28.416 822.633,36.209 822.633,36.209 C821.909,41.359 826.959,40.747 826.959,40.747 C826.959,40.747 831.458,45.279 831.458,45.279 C824.258,52.742 823.112,53.477 823.112,53.477 C823.112,53.477 818.653,49.074 818.653,49.074 C819.078,43.718 814.018,44.765 814.018,44.765 C812.677,42.819 810.856,44.663 810.856,44.663 C810.856,44.663 806.371,40.236 806.371,40.236 C808.265,38.062 808.698,35.203 808.698,35.203 C799.977,25.348 796.395,27.098 796.488,27.013 z" fill-opacity="0" stroke="#000000" stroke-width="2" stroke-linecap="round" stroke-linejoin="round"/>
        <path d="M789.044,20.107" fill-opacity="0" stroke="#000000" stroke-width="2"/>
        <path d="M786.725,60.261 L806.434,40.298 L810.919,44.726 L791.209,64.689 L786.725,60.261 z" fill-opacity="0" stroke="#000000" stroke-width="2" stroke-linecap="square" stroke-linejoin="round"/>
      </g>
    </g>
    <g>
      <path d="M997.04,76.769 C981.285,76.769 968.513,63.997 968.513,48.241 C968.513,32.486 981.285,19.714 997.04,19.714 C1012.796,19.714 1025.568,32.486 1025.568,48.241 C1025.568,63.997 1012.796,76.769 997.04,76.769 z" fill="#30B5FF"/>
      <g>
        <path d="M986.937,28.12 C996.203,19.585 1005.009,29.524 1005.009,29.524 C1005.009,29.524 1013.082,37.317 1013.082,37.317 C1012.358,42.467 1017.408,41.854 1017.408,41.854 C1017.408,41.854 1021.907,46.386 1021.907,46.386 C1014.706,53.849 1013.561,54.584 1013.561,54.584 C1013.561,54.584 1009.102,50.182 1009.102,50.182 C1009.526,44.825 1004.467,45.872 1004.467,45.872 C1003.126,43.926 1001.305,45.771 1001.305,45.771 C1001.305,45.771 996.82,41.343 996.82,41.343 C998.714,39.17 999.147,36.31 999.147,36.31 C990.426,26.455 986.844,28.206 986.937,28.12 z" fill-opacity="0" stroke="#000000" stroke-width="2" stroke-linecap="round" stroke-linejoin="round"/>
        <path d="M979.493,21.214" fill-opacity="0" stroke="#000000" stroke-width="2"/>
        <path d="M977.174,61.368 L996.883,41.405 L1001.368,45.833 L981.658,65.796 L977.174,61.368 z" fill-opacity="0" stroke="#000000" stroke-width="2" stroke-linecap="square" stroke-linejoin="round"/>
      </g>
    </g>
    <g>
      <path d="M1092.229,170.595 C1076.474,170.595 1063.702,157.823 1063.702,142.068 C1063.702,126.312 1076.474,113.54 1092.229,113.54 C1107.984,113.54 1120.756,126.312 1120.756,142.068 C1120.756,157.823 1107.984,170.595 1092.229,170.595 z" fill="#30B5FF"/>
      <g>
        <path d="M1082.126,121.946 C1091.391,113.411 1100.197,123.35 1100.197,123.35 C1100.197,123.35 1108.27,131.143 1108.27,131.143 C1107.547,136.293 1112.596,135.681 1112.596,135.681 C1112.596,135.681 1117.096,140.212 1117.096,140.212 C1109.895,147.675 1108.75,148.411 1108.75,148.411 C1108.75,148.411 1104.291,144.008 1104.291,144.008 C1104.715,138.651 1099.656,139.698 1099.656,139.698 C1098.315,137.752 1096.493,139.597 1096.493,139.597 C1096.493,139.597 1092.008,135.169 1092.008,135.169 C1093.902,132.996 1094.336,130.136 1094.336,130.136 C1085.615,120.281 1082.033,122.032 1082.126,121.946 z" fill-opacity="0" stroke="#000000" stroke-width="2" stroke-linecap="round" stroke-linejoin="round"/>
        <path d="M1074.681,115.04" fill-opacity="0" stroke="#000000" stroke-width="2"/>
        <path d="M1072.362,155.194 L1092.072,135.232 L1096.557,139.66 L1076.847,159.622 L1072.362,155.194 z" fill-opacity="0" stroke="#000000" stroke-width="2" stroke-linecap="square" stroke-linejoin="round"/>
      </g>
    </g>
    <g>
      <path d="M997.04,266.076 C981.285,266.076 968.513,253.303 968.513,237.548 C968.513,221.793 981.285,209.021 997.04,209.021 C1012.796,209.021 1025.568,221.793 1025.568,237.548 C1025.568,253.303 1012.796,266.076 997.04,266.076 z" fill="#30B5FF"/>
      <g>
        <path d="M986.937,217.427 C996.203,208.892 1005.009,218.831 1005.009,218.831 C1005.009,218.831 1013.082,226.623 1013.082,226.623 C1012.358,231.774 1017.408,231.161 1017.408,231.161 C1017.408,231.161 1021.907,235.693 1021.907,235.693 C1014.706,243.156 1013.561,243.891 1013.561,243.891 C1013.561,243.891 1009.102,239.488 1009.102,239.488 C1009.526,234.132 1004.467,235.179 1004.467,235.179 C1003.126,233.233 1001.305,235.078 1001.305,235.078 C1001.305,235.078 996.82,230.65 996.82,230.65 C998.714,228.477 999.147,225.617 999.147,225.617 C990.426,215.762 986.844,217.513 986.937,217.427 z" fill-opacity="0" stroke="#000000" stroke-width="2" stroke-linecap="round" stroke-linejoin="round"/>
        <path d="M979.493,210.521" fill-opacity="0" stroke="#000000" stroke-width="2"/>
        <path d="M977.174,250.675 L996.883,230.712 L1001.368,235.14 L981.658,255.103 L977.174,250.675 z" fill-opacity="0" stroke="#000000" stroke-width="2" stroke-linecap="square" stroke-linejoin="round"/>
      </g>
    </g>
    <g>
      <path d="M902.047,170.595 C886.292,170.595 873.519,157.823 873.519,142.068 C873.519,126.312 886.292,113.54 902.047,113.54 C917.802,113.54 930.574,126.312 930.574,142.068 C930.574,157.823 917.802,170.595 902.047,170.595 z" fill="#30B5FF"/>
      <g>
        <path d="M891.944,121.946 C901.209,113.411 910.015,123.35 910.015,123.35 C910.015,123.35 918.088,131.143 918.088,131.143 C917.364,136.293 922.414,135.681 922.414,135.681 C922.414,135.681 926.914,140.212 926.914,140.212 C919.713,147.675 918.568,148.411 918.568,148.411 C918.568,148.411 914.108,144.008 914.108,144.008 C914.533,138.651 909.473,139.698 909.473,139.698 C908.132,137.752 906.311,139.597 906.311,139.597 C906.311,139.597 901.826,135.169 901.826,135.169 C903.72,132.996 904.154,130.136 904.154,130.136 C895.432,120.281 891.851,122.032 891.944,121.946 z" fill-opacity="0" stroke="#000000" stroke-width="2" stroke-linecap="round" stroke-linejoin="round"/>
        <path d="M884.499,115.04" fill-opacity="0" stroke="#000000" stroke-width="2"/>
        <path d="M882.18,155.194 L901.89,135.232 L906.374,139.66 L886.665,159.622 L882.18,155.194 z" fill-opacity="0" stroke="#000000" stroke-width="2" stroke-linecap="square" stroke-linejoin="round"/>
      </g>
    </g>
    <g>
      <path d="M806.592,267.183 C790.836,267.183 778.064,254.411 778.064,238.656 C778.064,222.9 790.836,210.128 806.592,210.128 C822.347,210.128 835.119,222.9 835.119,238.656 C835.119,254.411 822.347,267.183 806.592,267.183 z" fill="#30B5FF"/>
      <g>
        <path d="M796.488,218.534 C805.754,209.999 814.56,219.938 814.56,219.938 C814.56,219.938 822.633,227.731 822.633,227.731 C821.909,232.881 826.959,232.269 826.959,232.269 C826.959,232.269 831.458,236.8 831.458,236.8 C824.258,244.263 823.112,244.999 823.112,244.999 C823.112,244.999 818.653,240.596 818.653,240.596 C819.078,235.239 814.018,236.286 814.018,236.286 C812.677,234.34 810.856,236.185 810.856,236.185 C810.856,236.185 806.371,231.757 806.371,231.757 C808.265,229.584 808.698,226.724 808.698,226.724 C799.977,216.869 796.395,218.62 796.488,218.534 z" fill-opacity="0" stroke="#000000" stroke-width="2" stroke-linecap="round" stroke-linejoin="round"/>
        <path d="M789.044,211.628" fill-opacity="0" stroke="#000000" stroke-width="2"/>
        <path d="M786.725,251.782 L806.434,231.82 L810.919,236.248 L791.209,256.21 L786.725,251.782 z" fill-opacity="0" stroke="#000000" stroke-width="2" stroke-linecap="square" stroke-linejoin="round"/>
      </g>
    </g>
    <g>
      <path d="M711.403,170.595 C695.648,170.595 682.876,157.823 682.876,142.068 C682.876,126.312 695.648,113.54 711.403,113.54 C727.158,113.54 739.93,126.312 739.93,142.068 C739.93,157.823 727.158,170.595 711.403,170.595 z" fill="#30B5FF"/>
      <g>
        <path d="M701.3,121.946 C710.565,113.411 719.371,123.35 719.371,123.35 C719.371,123.35 727.444,131.143 727.444,131.143 C726.721,136.293 731.77,135.681 731.77,135.681 C731.77,135.681 736.27,140.212 736.27,140.212 C729.069,147.675 727.924,148.411 727.924,148.411 C727.924,148.411 723.465,144.008 723.465,144.008 C723.889,138.651 718.83,139.698 718.83,139.698 C717.489,137.752 715.667,139.597 715.667,139.597 C715.667,139.597 711.182,135.169 711.182,135.169 C713.076,132.996 713.51,130.136 713.51,130.136 C704.789,120.281 701.207,122.032 701.3,121.946 z" fill-opacity="0" stroke="#000000" stroke-width="2" stroke-linecap="round" stroke-linejoin="round"/>
        <path d="M693.855,115.04" fill-opacity="0" stroke="#000000" stroke-width="2"/>
        <path d="M691.536,155.194 L711.246,135.232 L715.731,139.66 L696.021,159.622 L691.536,155.194 z" fill-opacity="0" stroke="#000000" stroke-width="2" stroke-linecap="square" stroke-linejoin="round"/>
      </g>
    </g>
    <g>
      <path d="M616.409,267.183 C600.654,267.183 587.882,254.411 587.882,238.656 C587.882,222.9 600.654,210.128 616.409,210.128 C632.164,210.128 644.937,222.9 644.937,238.656 C644.937,254.411 632.164,267.183 616.409,267.183 z" fill="#30B5FF"/>
      <g>
        <path d="M606.306,218.534 C615.572,209.999 624.378,219.938 624.378,219.938 C624.378,219.938 632.451,227.731 632.451,227.731 C631.727,232.881 636.776,232.268 636.776,232.268 C636.776,232.268 641.276,236.8 641.276,236.8 C634.075,244.263 632.93,244.998 632.93,244.998 C632.93,244.998 628.471,240.596 628.471,240.596 C628.895,235.239 623.836,236.286 623.836,236.286 C622.495,234.34 620.673,236.185 620.673,236.185 C620.673,236.185 616.189,231.757 616.189,231.757 C618.083,229.584 618.516,226.724 618.516,226.724 C609.795,216.869 606.213,218.62 606.306,218.534 z" fill-opacity="0" stroke="#000000" stroke-width="2" stroke-linecap="round" stroke-linejoin="round"/>
        <path d="M598.862,211.628" fill-opacity="0" stroke="#000000" stroke-width="2"/>
        <path d="M596.542,251.782 L616.252,231.82 L620.737,236.247 L601.027,256.21 L596.542,251.782 z" fill-opacity="0" stroke="#000000" stroke-width="2" stroke-linecap="square" stroke-linejoin="round"/>
      </g>
    </g>
  </g>
</svg>
